<?xml version="1.0" encoding="utf-8"?>
<!-- Generator: Adobe Illustrator 20.1.0, SVG Export Plug-In . SVG Version: 6.00 Build 0)  -->
<!DOCTYPE svg PUBLIC "-//W3C//DTD SVG 1.1//EN" "http://www.w3.org/Graphics/SVG/1.1/DTD/svg11.dtd">
<svg version="1.1" id="图层_1" xmlns="http://www.w3.org/2000/svg" xmlns:xlink="http://www.w3.org/1999/xlink" x="0px" y="0px"
	 viewBox="0 0 106.9 25" style="enable-background:new 0 0 106.9 25;" xml:space="preserve">
<style type="text/css">
	.st0{fill:#343535;}
	.st1{fill:#D19F6A;}
	.st2{fill:#E2E2E1;}
	.st3{fill:#CC1D22;}
</style>
<g>
	<path class="st0" d="M94,19.9h-8.3V5.2H94c0.6,0,1,0.4,1,1v12.6C95.1,19.5,94.5,19.9,94,19.9z"/>
	<rect x="95.1" y="17.8" class="st1" width="11.8" height="1.3"/>
	<rect x="95.1" y="15.3" class="st1" width="11.8" height="1.3"/>
	<rect x="95.1" y="13.1" class="st1" width="11.8" height="1.3"/>
	<rect x="95.1" y="10.6" class="st1" width="11.8" height="1.3"/>
	<rect x="95.1" y="8.3" class="st1" width="11.8" height="1.3"/>
	<rect x="95.1" y="6" class="st1" width="11.8" height="1.3"/>
	<path class="st2" d="M85.6,15.1h-8.5V2.6h7c0.9,0,1.6,0.7,1.6,1.6L85.6,15.1z"/>
	<path class="st2" d="M84.1,22.4h-6.9V9.9h8.5v10.9C85.6,21.7,84.9,22.4,84.1,22.4z"/>
	<polygon class="st3" points="45.6,25 55.2,25 77.3,3 77.3,0.1 70.4,0.1 	"/>
	<path class="st3" d="M20.5,0.1L0.9,19.8c0.7,3,1.9,4.9,3.3,5.2l0,0h1.1L30.1,0.1H20.5z"/>
	<polygon class="st3" points="67.7,25 77.3,15.3 77.3,5.9 58.2,25 	"/>
	<path class="st3" d="M7.9,0.1L0.3,7.7C0.1,9.2,0,10.9,0,12.5c0,1.7,0.1,3.3,0.3,4.7L17.5,0H7.9V0.1z"/>
	<path class="st3" d="M5,0.1H4l0,0C2.9,0.3,1.9,1.7,1.1,3.9L5,0.1z"/>
	<polygon class="st3" points="70.6,25 77.3,25 77.3,18.4 	"/>
	<polygon class="st3" points="33,0.1 8.2,25 17.6,25 42.5,0.1 	"/>
	<polygon class="st3" points="67.6,0.1 57.7,0.1 32.9,25 42.7,25 	"/>
	<polygon class="st3" points="54.8,0.1 45.5,0.1 20.7,25 30,25 	"/>
</g>
</svg>
